{
  "accessors": [
    {
      "bufferView": 2,
      "componentType": 5126,
      "count": 10290,
      "max": [
        1.3796199560165405,
        3.4660000801086426,
        1.1995899677276611
      ],
      "min": [
        -2.1104600429534912,
        -3.348330020904541,
        -1.4569699764251709
      ],
      "type": "VEC3"
    },
    {
      "bufferView": 2,
      "byteOffset": 123480,
      "componentType": 5126,
      "count": 10290,
      "max": [
        0.99900597333908081,
        0.99689286947250366,
        0.99980878829956055
      ],
      "min": [
        -0.99985164403915405,
        -0.99842047691345215,
        -0.99940842390060425
      ],
      "type": "VEC3"
    },
    {
      "bufferView": 3,
      "componentType": 5126,
      "count": 10290,
      "max": [
        0.99987691640853882,
        0.99993199110031128,
        0.99882376194000244,
        1
      ],
      "min": [
        -0.99721431732177734,
        -0.99727714061737061,
        -0.98665726184844971,
        -1
      ],
      "type": "VEC4"
    },
    {
      "bufferView": 1,
      "componentType": 5126,
      "count": 10290,
      "max": [
        0.96930998563766479,
        0.97676998376846313
      ],
      "min": [
        0.016389999538660049,
        0.026900000870227814
      ],
      "type": "VEC2"
    },
    {
      "bufferView": 0,
      "componentType": 5125,
      "count": 15396,
      "max": [
        10289
      ],
      "min": [
        0
      ],
      "type": "SCALAR"
    },
    {
      "bufferView": 2,
      "byteOffset": 246960,
      "componentType": 5126,
      "count": 728,
      "max": [
        -0.70013999938964844,
        -1.9219499826431274,
        0.87005001306533813
      ],
      "min": [
        -1.7385100126266479,
        -2.94815993309021,
        0.52192997932434082
      ],
      "type": "VEC3"
    },
    {
      "bufferView": 2,
      "byteOffset": 255696,
      "componentType": 5126,
      "count": 728,
      "max": [
        0.94833934307098389,
        0.93376433849334717,
        0.79332208633422852
      ],
      "min": [
        -0.99935966730117798,
        -0.99920082092285156,
        -0.66607075929641724
      ],
      "type": "VEC3"
    },
    {
      "bufferView": 3,
      "byteOffset": 164640,
      "componentType": 5126,
      "count": 728,
      "max": [
        0.9805634617805481,
        0.97109448909759521,
        -0.19293282926082611,
        1
      ],
      "min": [
        -0.21616409718990326,
        -0.19235222041606903,
        -0.57299816608428955,
        -1
      ],
      "type": "VEC4"
    },
    {
      "bufferView": 1,
      "byteOffset": 82320,
      "componentType": 5126,
      "count": 728,
      "max": [
        0.50281000137329102,
        0.97377002239227295
      ],
      "min": [
        0.35604000091552734,
        0.85280001163482666
      ],
      "type": "VEC2"
    },
    {
      "bufferView": 0,
      "byteOffset": 61584,
      "componentType": 5125,
      "count": 1092,
      "max": [
        727
      ],
      "min": [
        0
      ],
      "type": "SCALAR"
    }
  ],
  "asset": {
    "extras": {
      "author": "bluekiwi.dog (https://sketchfab.com/bluekiwi.dog)",
      "license": "CC-BY-4.0 (http://creativecommons.org/licenses/by/4.0/)",
      "source": "https://sketchfab.com/3d-models/eublepharis-af96cb9c14624ec5b88084c7b854709f",
      "title": "Eublepharis"
    },
    "generator": "Sketchfab-4.81.0",
    "version": "2.0"
  },
  "bufferViews": [
    {
      "buffer": 0,
      "byteLength": 65952,
      "byteOffset": 0,
      "name": "floatBufferViews",
      "target": 34963
    },
    {
      "buffer": 0,
      "byteLength": 88144,
      "byteOffset": 65952,
      "byteStride": 8,
      "name": "floatBufferViews",
      "target": 34962
    },
    {
      "buffer": 0,
      "byteLength": 264432,
      "byteOffset": 154096,
      "byteStride": 12,
      "name": "floatBufferViews",
      "target": 34962
    },
    {
      "buffer": 0,
      "byteLength": 176288,
      "byteOffset": 418528,
      "byteStride": 16,
      "name": "floatBufferViews",
      "target": 34962
    }
  ],
  "buffers": [
    {
      "byteLength": 594816,
      "uri": "scene.bin"
    }
  ],
  "extensionsUsed": [
    "KHR_materials_unlit"
  ],
  "images": [
    {
      "uri": "textures/Material_baseColor.png"
    },
    {
      "uri": "textures/Material.001_baseColor.png"
    }
  ],
  "materials": [
    {
      "doubleSided": true,
      "emissiveFactor": [
        0,
        0,
        0
      ],
      "extensions": {
        "KHR_materials_unlit": {}
      },
      "name": "Material",
      "pbrMetallicRoughness": {
        "baseColorFactor": [
          1,
          1,
          1,
          1
        ],
        "baseColorTexture": {
          "index": 0,
          "texCoord": 0
        },
        "metallicFactor": 0,
        "roughnessFactor": 1
      }
    },
    {
      "doubleSided": true,
      "emissiveFactor": [
        0,
        0,
        0
      ],
      "extensions": {
        "KHR_materials_unlit": {}
      },
      "name": "Material.001",
      "pbrMetallicRoughness": {
        "baseColorFactor": [
          1,
          1,
          1,
          1
        ],
        "baseColorTexture": {
          "index": 1,
          "texCoord": 0
        },
        "metallicFactor": 0,
        "roughnessFactor": 1
      }
    }
  ],
  "meshes": [
    {
      "name": "Cube.001_0",
      "primitives": [
        {
          "attributes": {
            "NORMAL": 1,
            "POSITION": 0,
            "TANGENT": 2,
            "TEXCOORD_0": 3
          },
          "indices": 4,
          "material": 0,
          "mode": 4
        }
      ]
    },
    {
      "name": "Cube.001_1",
      "primitives": [
        {
          "attributes": {
            "NORMAL": 6,
            "POSITION": 5,
            "TANGENT": 7,
            "TEXCOORD_0": 8
          },
          "indices": 9,
          "material": 1,
          "mode": 4
        }
      ]
    }
  ],
  "nodes": [
    {
      "children": [
        1
      ],
      "name": "RootNode (gltf orientation matrix)",
      "rotation": [
        -0.70710678118654746,
        -0,
        -0,
        0.70710678118654757
      ]
    },
    {
      "children": [
        2
      ],
      "name": "RootNode (model correction matrix)"
    },
    {
      "children": [
        3
      ],
      "name": "Root"
    },
    {
      "children": [
        4,
        5
      ],
      "name": "Cube.001"
    },
    {
      "mesh": 0,
      "name": "Cube.001_0"
    },
    {
      "mesh": 1,
      "name": "Cube.001_1"
    }
  ],
  "samplers": [
    {
      "magFilter": 9729,
      "minFilter": 9987,
      "wrapS": 10497,
      "wrapT": 10497
    }
  ],
  "scene": 0,
  "scenes": [
    {
      "name": "OSG_Scene",
      "nodes": [
        0
      ]
    }
  ],
  "textures": [
    {
      "sampler": 0,
      "source": 0
    },
    {
      "sampler": 0,
      "source": 1
    }
  ]
}

